<svg preserveAspectRatio="none" overflow="visible" style="display: block;" width="61.8646" height="22.2423" viewBox="0 0 61.8646 22.2423" fill="none" xmlns="http://www.w3.org/2000/svg">
<g id="Group">
<path id="Vector" d="M10.3338 22.1269C8.23189 22.1269 6.39731 21.7109 4.82786 20.8768C3.25842 20.0427 2.04818 18.8117 1.20145 17.1819C0.352585 15.552 -0.0451205 13.5509 0.00405832 11.1765C0.0553753 8.75093 0.559993 6.71147 1.52433 5.05813C2.48652 3.4048 3.78441 2.14613 5.418 1.28853C7.0516 0.430932 8.93109 0 11.0565 0C14.0692 0 16.3742 0.631466 17.9693 1.8944C19.4703 3.0848 20.5116 4.77653 21.0932 6.97387C21.1509 7.19573 21.0013 7.41973 20.7725 7.45387L17.0969 8.01707C16.9002 8.04693 16.7184 7.9232 16.6628 7.73333C16.4234 6.9312 16.0428 6.28693 15.5189 5.79627C14.9245 5.2416 14.2338 4.84907 13.4491 4.6208C12.6644 4.39253 11.8668 4.27947 11.0565 4.27947C8.77714 4.27947 7.12643 4.88533 6.10009 6.0992C5.07375 7.31093 4.54989 8.8896 4.52423 10.8352C4.52423 13.0581 5.1379 14.7499 6.36523 15.9125C7.59257 17.0752 9.34589 17.6555 11.6252 17.6555C12.8397 17.6555 13.9986 17.4037 15.0998 16.8981C16.1262 16.4288 16.8489 15.6181 17.2722 14.4661C17.3193 14.3403 17.2209 14.208 17.0862 14.208H13.6843C13.4684 14.208 13.2952 14.0331 13.2952 13.8197V11.3003C13.2952 11.0848 13.4705 10.912 13.6843 10.912H21.2237C21.4396 10.912 21.6128 11.0869 21.6128 11.3003V21.3227C21.6128 21.5381 21.4375 21.7109 21.2237 21.7109H18.8224C18.6535 21.7109 18.5017 21.6021 18.4504 21.44L17.5117 18.4896H17.4369C17.005 19.3984 16.1967 20.2325 15.0057 20.9899C13.8148 21.7472 12.2581 22.1269 10.3338 22.1269Z" fill="#500322"/>
<path id="Vector_2" d="M23.2227 17.3058V14.0418C23.2227 13.8882 23.3146 13.7537 23.4536 13.6897C24.6766 13.1415 25.7628 12.3778 26.7165 11.4028C27.7279 10.3682 28.5767 9.21188 29.261 7.93615C29.9452 6.66042 30.4562 5.36548 30.7983 4.05135C31.102 2.88228 31.2709 1.78362 31.3051 0.755349C31.3115 0.544149 31.4804 0.375616 31.6921 0.375616H35.8873C36.1054 0.375616 36.2871 0.554816 36.2786 0.772416C36.2251 2.16762 35.8915 3.62042 35.28 5.13082C34.6086 6.78628 33.6336 8.36495 32.3549 9.86682C31.211 11.213 29.8575 12.4012 28.2988 13.4316C28.1363 13.5383 28.209 13.7879 28.4035 13.7879H33.4283C33.6443 13.7879 33.8175 13.6129 33.8175 13.3996V11.4498C33.8175 11.2343 33.9928 11.0615 34.2066 11.0615H38.0233C38.2393 11.0615 38.4125 11.2364 38.4125 11.4498V13.3996C38.4125 13.6151 38.5878 13.7879 38.8016 13.7879H40.5293C40.7453 13.7879 40.9185 13.9628 40.9185 14.1761V17.3015C40.9185 17.517 40.7431 17.6897 40.5293 17.6897H38.8016C38.5857 17.6897 38.4125 17.8647 38.4125 18.078V21.3164C38.4125 21.5319 38.2372 21.7047 38.0233 21.7047H34.2066C33.9907 21.7047 33.8175 21.5297 33.8175 21.3164V18.078C33.8175 17.8626 33.6421 17.6897 33.4283 17.6897H23.6118C23.3958 17.6897 23.2227 17.5148 23.2227 17.3015V17.3058Z" fill="#500322"/>
<path id="Vector_3" d="M52.3324 22.2423C49.2192 22.2423 46.8565 21.4039 45.2507 19.7229C43.6427 18.0439 42.8388 15.6738 42.8388 12.6189V0.7682C42.8388 0.552734 43.0141 0.379934 43.2279 0.379934H47.3483C47.5642 0.379934 47.7374 0.554867 47.7374 0.7682V12.5805C47.7374 14.0717 47.9833 15.1959 48.4772 15.9533C48.9712 16.7106 49.572 17.2226 50.2819 17.4871C50.9896 17.7517 51.6739 17.8861 52.3324 17.8861C53.0915 17.8861 53.8249 17.7538 54.5348 17.4871C55.2425 17.2226 55.8263 16.7106 56.2817 15.9533C56.7371 15.1959 56.9659 14.0717 56.9659 12.5805V0.7682C56.9659 0.552734 57.1413 0.379934 57.3551 0.379934H61.4754C61.6914 0.379934 61.8646 0.554867 61.8646 0.7682V12.6189C61.8646 15.725 61.0734 18.1079 59.4912 19.7613C57.9089 21.4167 55.5226 22.2423 52.3324 22.2423Z" fill="#500322"/>
</g>
</svg>
